<?xml version="1.0" encoding="UTF-8"?>
<svg version="1.1" xmlns="http://www.w3.org/2000/svg" width="44" height="46">
<path d="M0 0 C5.28 2.64 10.56 5.28 16 8 C17.51842674 25.8330785 17.51842674 25.8330785 14.125 30.67578125 C11.49621311 32.46253484 8.91271924 33.73308553 6 35 C4.15499129 36.12693745 2.32100024 37.27216603 0.5 38.4375 C-3.72845953 41 -3.72845953 41 -6 41 C-6.11613204 37.89614789 -6.18722029 34.79285338 -6.25 31.6875 C-6.28351562 30.80642578 -6.31703125 29.92535156 -6.3515625 29.01757812 C-6.45066069 22.50187213 -6.45066069 22.50187213 -4.109375 19.89453125 C-2 19 -2 19 0 19 C0 12.73 0 6.46 0 0 Z " fill="#484848" transform="translate(26,5)"/>
<path d="M0 0 C0.11613204 3.10385211 0.18722029 6.20714662 0.25 9.3125 C0.28351562 10.19357422 0.31703125 11.07464844 0.3515625 11.98242188 C0.45066069 18.49812787 0.45066069 18.49812787 -1.890625 21.10546875 C-4 22 -4 22 -6 22 C-6 28.27 -6 34.54 -6 41 C-11.28 38.36 -16.56 35.72 -22 33 C-23.51842674 15.1669215 -23.51842674 15.1669215 -20.125 10.32421875 C-17.49621311 8.53746516 -14.91271924 7.26691447 -12 6 C-10.15499129 4.87306255 -8.32100024 3.72783397 -6.5 2.5625 C-2.27154047 0 -2.27154047 0 0 0 Z " fill="#EF2BA9" transform="translate(24,0)"/>
<path d="M0 0 C0.66 0 1.32 0 2 0 C2.33 1.98 2.66 3.96 3 6 C3.99 6 4.98 6 6 6 C6 8.97 6 11.94 6 15 C7.11375 14.34 8.2275 13.68 9.375 13 C12.75 11 12.75 11 15 11 C15 16.94 15 22.88 15 29 C9.72 26.36 4.44 23.72 -1 21 C-1.02683436 17.68744674 -1.0467578 14.37510817 -1.0625 11.0625 C-1.07087891 10.11697266 -1.07925781 9.17144531 -1.08789062 8.19726562 C-1.09111328 7.29814453 -1.09433594 6.39902344 -1.09765625 5.47265625 C-1.10289307 4.64000244 -1.10812988 3.80734863 -1.11352539 2.94946289 C-1 1 -1 1 0 0 Z " fill="#6872FA" transform="translate(3,12)"/>
<path d="M0 0 C7.92 3.96 7.92 3.96 16 8 C13.23860124 10.76139876 10.71375285 12.60657775 7.4375 14.6875 C6.46683594 15.31011719 5.49617188 15.93273438 4.49609375 16.57421875 C2 18 2 18 0 18 C0 12.06 0 6.12 0 0 Z " fill="#323232" transform="translate(26,5)"/>
<path d="M0 0 C0.11613204 3.10385211 0.18722029 6.20714662 0.25 9.3125 C0.30027344 10.63411133 0.30027344 10.63411133 0.3515625 11.98242188 C0.45040422 18.48126522 0.45040422 18.48126522 -1.828125 21.10546875 C-4 22 -4 22 -7 22 C-6.94815917 18.89446608 -6.8531005 15.79172169 -6.75 12.6875 C-6.73582031 11.80642578 -6.72164062 10.92535156 -6.70703125 10.01757812 C-6.4593369 3.50321664 -6.4593369 3.50321664 -4.078125 0.89453125 C-2 0 -2 0 0 0 Z " fill="#FA674B" transform="translate(24,0)"/>
<path d="M0 0 C0.66 0 1.32 0 2 0 C2.33 1.98 2.66 3.96 3 6 C3.99 6 4.98 6 6 6 C6.33 9.3 6.66 12.6 7 16 C3.04 17.98 3.04 17.98 -1 20 C-1.02683697 16.85411056 -1.04675902 13.70844729 -1.0625 10.5625 C-1.07087891 9.66466797 -1.07925781 8.76683594 -1.08789062 7.84179688 C-1.09111328 6.98779297 -1.09433594 6.13378906 -1.09765625 5.25390625 C-1.10551147 4.06776733 -1.10551147 4.06776733 -1.11352539 2.85766602 C-1 1 -1 1 0 0 Z " fill="#BE8BF5" transform="translate(3,12)"/>
<path d="M0 0 C0.10655578 6.44070471 -0.03794912 12.62641289 -1 19 C-3.4375 18.375 -3.4375 18.375 -6 17 C-7.57731906 12.26804281 -7.09694581 7.77954958 -6 3 C-2.25 0 -2.25 0 0 0 Z " fill="#F5488C" transform="translate(18,3)"/>
<path d="M0 0 C0.66 0 1.32 0 2 0 C2 6.27 2 12.54 2 19 C1.01 19.33 0.02 19.66 -1 20 C-1.02888514 16.85418577 -1.04675923 13.70840531 -1.0625 10.5625 C-1.07087891 9.66466797 -1.07925781 8.76683594 -1.08789062 7.84179688 C-1.09111328 6.98779297 -1.09433594 6.13378906 -1.09765625 5.25390625 C-1.10551147 4.06776733 -1.10551147 4.06776733 -1.11352539 2.85766602 C-1 1 -1 1 0 0 Z " fill="#FD8736" transform="translate(22,0)"/>
<path d="M0 0 C0.99 0 1.98 0 3 0 C3 1.32 3 2.64 3 4 C3.99 3.67 4.98 3.34 6 3 C6.99 4.32 7.98 5.64 9 7 C2.25 11 2.25 11 0 11 C0 7.37 0 3.74 0 0 Z " fill="#F269B4" transform="translate(9,16)"/>
<path d="M0 0 C1.32 0 2.64 0 4 0 C4 2.97 4 5.94 4 9 C1.69 8.01 -0.62 7.02 -3 6 C-3 4.68 -3 3.36 -3 2 C-2.01 2 -1.02 2 0 2 C0 1.34 0 0.68 0 0 Z " fill="#A189FB" transform="translate(14,32)"/>
<path d="M0 0 C0.05391993 1.79133978 0.09275571 3.58313899 0.125 5.375 C0.14820313 6.37273438 0.17140625 7.37046875 0.1953125 8.3984375 C0 11 0 11 -2 13 C-4.72286806 8.91569792 -4.38524534 6.85409123 -4 2 C-1 0 -1 0 0 0 Z " fill="#F74865" transform="translate(18,3)"/>
<path d="M0 0 C1.32 0 2.64 0 4 0 C4.33 3.3 4.66 6.6 5 10 C3.68 10.33 2.36 10.66 1 11 C-0.28317892 7.15046324 -0.06643637 4.05261865 0 0 Z " fill="#D757D5" transform="translate(5,18)"/>
<path d="M0 0 C0 0.99 0 1.98 0 3 C0.66 3 1.32 3 2 3 C2 4.65 2 6.3 2 8 C-1.45925163 6.7508258 -4.14693203 5.32472205 -7 3 C-2.25 0 -2.25 0 0 0 Z " fill="#5D9EFD" transform="translate(9,29)"/>
<path d="M0 0 C0 2.97 0 5.94 0 9 C-1.32 9 -2.64 9 -4 9 C-4.33 6.69 -4.66 4.38 -5 2 C-2 0 -2 0 0 0 Z " fill="#814DF7" transform="translate(18,23)"/>
<path d="M0 0 C0.66 0 1.32 0 2 0 C2.6875 2.8125 2.6875 2.8125 3 6 C1.5625 7.875 1.5625 7.875 0 9 C-1 8 -1 8 -1.125 4.5 C-1 1 -1 1 0 0 Z " fill="#AC46E8" transform="translate(3,12)"/>
<path d="M0 0 C0.33 2.64 0.66 5.28 1 8 C0.01 8 -0.98 8 -2 8 C-2.66 5.69 -3.32 3.38 -4 1 C-2 0 -2 0 0 0 Z " fill="#D233CA" transform="translate(8,10)"/>
<path d="M0 0 C0.66 0 1.32 0 2 0 C2.33 1.65 2.66 3.3 3 5 C1.35 5.33 -0.3 5.66 -2 6 C-1.125 1.125 -1.125 1.125 0 0 Z " fill="#FA786F" transform="translate(19,16)"/>
<path d="M0 0 C0.99 0 1.98 0 3 0 C3.33 1.98 3.66 3.96 4 6 C3.01 6.33 2.02 6.66 1 7 C0 6 0 6 -0.0625 2.9375 C-0.041875 1.968125 -0.02125 0.99875 0 0 Z " fill="#B76CF0" transform="translate(2,20)"/>
<path d="M0 0 C0.99 0 1.98 0 3 0 C3.33 1.98 3.66 3.96 4 6 C3.01 6.33 2.02 6.66 1 7 C0 6 0 6 -0.0625 2.9375 C-0.041875 1.968125 -0.02125 0.99875 0 0 Z " fill="#F34EB8" transform="translate(9,16)"/>
<path d="M0 0 C1.32 1.65 2.64 3.3 4 5 C2.02 5.99 2.02 5.99 0 7 C-1.04449911 3.86650268 -0.93423645 3.01031744 0 0 Z " fill="#D577E1" transform="translate(6,22)"/>
</svg>
